<svg width="66" height="80" viewBox="0 0 66 80" fill="none" xmlns="http://www.w3.org/2000/svg">
<path d="M41.0083 19.375C41.3136 17.5858 42.0047 15.8846 43.0338 14.3895C44.0629 12.8945 45.4053 11.6415 46.9676 10.7176C48.5298 9.7937 50.2746 9.22112 52.0805 9.03964C53.8864 8.85815 55.7101 9.07212 57.425 9.66667L59.8834 10.5208C60.9276 10.8833 62.0731 10.8161 63.0679 10.334C64.0626 9.85183 64.8251 8.99429 65.1875 7.95C65.55 6.90571 65.4828 5.76021 65.0006 4.76548C64.5185 3.77076 63.661 3.0083 62.6167 2.64584L60.15 1.79167C57.2922 0.801237 54.2529 0.444955 51.2435 0.747581C48.2341 1.05021 45.3266 2.00448 42.7232 3.5441C40.1198 5.08372 37.8828 7.17175 36.1677 9.66309C34.4526 12.1544 33.3006 14.9894 32.7917 17.9708L29.7583 35.75H14.1667C13.0616 35.75 12.0018 36.189 11.2204 36.9704C10.439 37.7518 10 38.8116 10 39.9167C10 41.0217 10.439 42.0815 11.2204 42.8629C12.0018 43.6443 13.0616 44.0833 14.1667 44.0833H28.3333L25.4583 60.925C25.1225 62.8896 24.3216 64.7455 23.1227 66.3377C21.9238 67.9299 20.3615 69.2123 18.5661 70.078C16.7708 70.9436 14.7945 71.3674 12.8021 71.314C10.8096 71.2606 8.85888 70.7315 7.11251 69.7708L6.80001 69.6C5.8338 69.09 4.70591 68.9798 3.65929 69.2934C2.61267 69.6069 1.73106 70.3189 1.20436 71.2762C0.677662 72.2334 0.54802 73.3592 0.843356 74.4111C1.13869 75.463 1.83538 76.3568 2.78335 76.9L3.10001 77.075C15.65 83.9792 31.2667 76.45 33.675 62.325L36.7875 44.0833H51.6667C52.7718 44.0833 53.8316 43.6443 54.613 42.8629C55.3944 42.0815 55.8333 41.0217 55.8333 39.9167C55.8333 38.8116 55.3944 37.7518 54.613 36.9704C53.8316 36.189 52.7718 35.75 51.6667 35.75H38.2083L41.0083 19.375V19.375Z" fill="#6C3483"/>
</svg>
